<svg width="28" height="18" viewBox="0 0 28 18" fill="none" xmlns="http://www.w3.org/2000/svg">
<path d="M26.5959 5.99224C25.1129 2.05794 20.4855 -0.240548 15.8688 0.449925C17.6765 1.43234 19.1053 2.94768 19.8143 4.8291C20.8372 7.54928 20.112 10.39 18.1744 12.466C18.1257 12.4475 18.0824 12.4289 18.0337 12.415C18.0337 12.3687 18.0337 12.327 18.0337 12.2806C18.0337 10.7838 16.6103 9.56509 14.8621 9.56509C14.3371 9.56509 13.8284 9.67168 13.3791 9.88021C13.0003 8.49 11.5173 7.46587 9.7475 7.46587H9.55266C7.78826 7.54465 6.37566 8.61512 6.06716 10.01C5.78572 9.94045 5.49887 9.90338 5.21202 9.90338C3.46385 9.90338 2.04043 11.1175 2.04043 12.6143C1.19611 12.8321 0 13.3094 0 14.8016C0 16.0435 1.28271 17.0491 2.85227 17.0491H3.00381C3.93472 17.0027 7.79367 17.0491 7.79367 17.0491V16.9888C7.79367 16.9888 7.81532 16.9888 7.82073 16.9888C8.40526 17.0537 9.65008 17.0537 12.2804 17.0583C12.2804 17.0583 14.3317 17.0908 15.8417 17.0908C16.4262 17.0908 16.935 17.0862 17.211 17.0722C17.7306 17.0491 18.2123 16.8869 18.6399 16.6227C19.2352 16.5625 19.836 16.4606 20.4313 16.2937C25.4539 14.9081 28.2142 10.288 26.5959 5.98761V5.99224ZM7.82073 16.1918L7.80991 16.3864V16.1918C7.80991 16.1918 6.02927 16.1732 4.5842 16.1732C3.88601 16.1732 3.25819 16.1732 2.85227 16.1918C1.851 16.1918 1.00668 15.5523 1.00127 14.8016C1.00127 13.884 1.56956 13.5921 2.69531 13.3557L3.07958 13.2353L3.06335 12.7672C3.05793 12.7209 3.04711 12.6699 3.04711 12.6189C3.04711 11.5948 4.02132 10.7653 5.21743 10.7653C5.57464 10.7653 5.93185 10.8487 6.26741 11.0063L7.03054 11.3724L7.01431 10.6263C6.99266 9.39827 8.12923 8.38805 9.6122 8.32317H9.75833C11.2142 8.32317 12.4049 9.26388 12.4753 10.4734C12.4753 10.5151 12.4753 10.5521 12.4699 10.6587L12.4158 11.7755L13.3304 10.9831C13.7418 10.6263 14.2884 10.427 14.8729 10.427C16.069 10.427 17.0378 11.2612 17.0378 12.2853C17.0378 12.415 17.0216 12.5402 16.9945 12.656L16.8971 13.087L17.4005 13.1611C17.4005 13.1611 17.4221 13.1657 17.4329 13.1704C16.3992 14.0462 15.1273 14.7367 13.6552 15.1445C13.2168 15.265 12.7838 15.3484 12.34 15.4133C12.9624 15.7562 13.6281 16.025 14.3263 16.2381C13.2492 16.2289 12.2967 16.215 12.2913 16.215C12.2913 16.215 8.03722 16.2103 7.82073 16.201V16.1918Z" fill="white"/>
</svg>
