<svg width="24" height="25" viewBox="0 0 24 25" fill="none" xmlns="http://www.w3.org/2000/svg">
<path d="M21.1328 3.08119V2.13324C21.1328 1.70008 20.9672 1.28466 20.6723 0.978365C20.3775 0.672073 19.9776 0.5 19.5606 0.5C19.1437 0.5 18.7438 0.672073 18.4489 0.978365C18.1541 1.28466 17.9884 1.70008 17.9884 2.13324V3.07986H16.1429V2.13324C16.1429 1.70008 15.9772 1.28466 15.6824 0.978365C15.3876 0.672073 14.9877 0.5 14.5707 0.5C14.1537 0.5 13.7538 0.672073 13.459 0.978365C13.1641 1.28466 12.9985 1.70008 12.9985 2.13324V3.07986H11.1504V2.13324C11.1504 1.70008 10.9847 1.28466 10.6899 0.978365C10.395 0.672073 9.99515 0.5 9.57818 0.5C9.16121 0.5 8.76132 0.672073 8.46647 0.978365C8.17163 1.28466 8.00599 1.70008 8.00599 2.13324V3.07986H6.16043V2.13324C6.16043 1.70008 5.99479 1.28466 5.69994 0.978365C5.4051 0.672073 5.00521 0.5 4.58823 0.5C4.17126 0.5 3.77137 0.672073 3.47653 0.978365C3.18168 1.28466 3.01604 1.70008 3.01604 2.13324V3.07986H2.89258C2.12567 3.08084 1.39044 3.39779 0.848176 3.96116C0.305911 4.52453 0.000883028 5.28833 0 6.08502V21.4948C0.000883028 22.2915 0.305911 23.0553 0.848176 23.6187C1.39044 24.1821 2.12567 24.499 2.89258 24.5H21.1072C21.8741 24.4991 22.6094 24.1822 23.1517 23.6188C23.6941 23.0554 23.9991 22.2916 24 21.4948V6.08502C23.9991 5.29302 23.6975 4.53336 23.1607 3.97097C22.6239 3.40857 21.8952 3.08884 21.1328 3.08119ZM18.8868 2.13324C18.8872 1.99494 18.927 1.85985 19.0011 1.74498C19.0753 1.63012 19.1805 1.54063 19.3035 1.48779C19.4266 1.43495 19.5619 1.42113 19.6925 1.44806C19.8231 1.47499 19.943 1.54148 20.0373 1.63914C20.1 1.70383 20.1497 1.78083 20.1836 1.86565C20.2174 1.95047 20.2347 2.04143 20.2344 2.13324V4.95975C20.2344 5.14539 20.1634 5.32343 20.0371 5.4547C19.9107 5.58597 19.7393 5.65971 19.5606 5.65971C19.3819 5.65971 19.2106 5.58597 19.0842 5.4547C18.9578 5.32343 18.8868 5.14539 18.8868 4.95975V2.13324ZM13.8969 2.13324C13.8969 1.9476 13.9679 1.76956 14.0942 1.6383C14.2206 1.50703 14.392 1.43328 14.5707 1.43328C14.7494 1.43328 14.9208 1.50703 15.0471 1.6383C15.1735 1.76956 15.2445 1.9476 15.2445 2.13324V4.95975C15.2445 5.14539 15.1735 5.32343 15.0471 5.4547C14.9208 5.58597 14.7494 5.65971 14.5707 5.65971C14.392 5.65971 14.2206 5.58597 14.0942 5.4547C13.9679 5.32343 13.8969 5.14539 13.8969 4.95975V2.13324ZM8.90438 2.13324C8.90438 1.9476 8.97537 1.76956 9.10174 1.6383C9.2281 1.50703 9.39948 1.43328 9.57818 1.43328C9.75688 1.43328 9.92827 1.50703 10.0546 1.6383C10.181 1.76956 10.252 1.9476 10.252 2.13324V4.95975C10.252 5.14539 10.181 5.32343 10.0546 5.4547C9.92827 5.58597 9.75688 5.65971 9.57818 5.65971C9.39948 5.65971 9.2281 5.58597 9.10174 5.4547C8.97537 5.32343 8.90438 5.14539 8.90438 4.95975V2.13324ZM3.91444 2.13324C3.91444 1.9476 3.98543 1.76956 4.11179 1.6383C4.23815 1.50703 4.40953 1.43328 4.58823 1.43328C4.76694 1.43328 4.93832 1.50703 5.06468 1.6383C5.19104 1.76956 5.26203 1.9476 5.26203 2.13324V4.95975C5.26203 5.14539 5.19104 5.32343 5.06468 5.4547C4.93832 5.58597 4.76694 5.65971 4.58823 5.65971C4.40953 5.65971 4.23815 5.58597 4.11179 5.4547C3.98543 5.32343 3.91444 5.14539 3.91444 4.95975V2.13324ZM2.89258 4.01314H3.01604V4.95975C3.01604 5.17423 3.05671 5.38661 3.13572 5.58477C3.21473 5.78292 3.33054 5.96297 3.47653 6.11463C3.62252 6.26629 3.79584 6.38659 3.98658 6.46867C4.17733 6.55075 4.38177 6.593 4.58823 6.593C4.7947 6.593 4.99914 6.55075 5.18989 6.46867C5.38063 6.38659 5.55395 6.26629 5.69994 6.11463C5.84593 5.96297 5.96174 5.78292 6.04075 5.58477C6.11976 5.38661 6.16043 5.17423 6.16043 4.95975V4.01314H8.00599V4.95975C8.00599 5.39292 8.17163 5.80834 8.46647 6.11463C8.76132 6.42092 9.16121 6.593 9.57818 6.593C9.99515 6.593 10.395 6.42092 10.6899 6.11463C10.9847 5.80834 11.1504 5.39292 11.1504 4.95975V4.01314H12.9985V4.95975C12.9985 5.39292 13.1641 5.80834 13.459 6.11463C13.7538 6.42092 14.1537 6.593 14.5707 6.593C14.9877 6.593 15.3876 6.42092 15.6824 6.11463C15.9772 5.80834 16.1429 5.39292 16.1429 4.95975V4.01314H17.9884V4.95975C17.9884 5.39292 18.1541 5.80834 18.4489 6.11463C18.7438 6.42092 19.1437 6.593 19.5606 6.593C19.9776 6.593 20.3775 6.42092 20.6723 6.11463C20.9672 5.80834 21.1328 5.39292 21.1328 4.95975V4.01447C21.657 4.02189 22.1573 4.24322 22.5257 4.63064C22.894 5.01806 23.1009 5.54047 23.1016 6.08502V7.39428H0.898396V6.08502C0.898939 5.53574 1.10921 5.00912 1.48306 4.6207C1.85692 4.23227 2.36383 4.01377 2.89258 4.01314ZM23.1016 21.4948C23.101 22.0441 22.8907 22.5708 22.5168 22.9592C22.1429 23.3476 21.6359 23.5661 21.1072 23.5667H2.89258C2.36383 23.5661 1.85692 23.3476 1.48306 22.9592C1.10921 22.5707 0.898939 22.0441 0.898396 21.4948V8.32757H23.1016V21.4948Z" fill="#215329"/>
<path d="M12.0496 22.1308C13.4816 22.1317 14.8685 21.611 15.9692 20.6594C17.0698 19.7078 17.8145 18.3855 18.0738 16.9225C18.0929 16.8138 18.0743 16.7015 18.0211 16.6057C17.968 16.5098 17.8839 16.4367 17.7837 16.3994C17.6835 16.362 17.5738 16.3628 17.4742 16.4016C17.3745 16.4404 17.2914 16.5148 17.2395 16.6114C16.9077 17.2319 16.4416 17.764 15.8782 18.1656C15.3147 18.5673 14.6692 18.8276 13.9925 18.926C13.3157 19.0245 12.6262 18.9584 11.9782 18.733C11.3302 18.5076 10.7414 18.1289 10.2582 17.627C9.77505 17.125 9.41062 16.5133 9.19365 15.8402C8.97668 15.167 8.91309 14.4507 9.00789 13.7477C9.10269 13.0447 9.35329 12.3741 9.73996 11.7888C10.1266 11.2035 10.6388 10.7194 11.2362 10.3746C11.3294 10.3209 11.4011 10.2345 11.4386 10.1309C11.4761 10.0273 11.477 9.91318 11.441 9.80898C11.405 9.70479 11.3345 9.61728 11.2421 9.5621C11.1497 9.50692 11.0414 9.48766 10.9366 9.50775C9.4339 9.79609 8.08914 10.6574 7.16626 11.9227C6.24338 13.1881 5.80902 14.766 5.9484 16.3469C6.08779 17.9277 6.79087 19.3974 7.91966 20.4675C9.04846 21.5376 10.5215 22.1308 12.0496 22.1308ZM8.88394 11.4415C8.24106 12.5004 7.96382 13.755 8.0977 14.9991C8.23158 16.2433 8.76864 17.4033 9.62073 18.2886C10.4728 19.1739 11.5893 19.7321 12.787 19.8714C13.9846 20.0107 15.1923 19.7229 16.2118 19.0552C15.7598 19.672 15.1861 20.1812 14.5291 20.5487C13.872 20.9161 13.1469 21.1331 12.4025 21.1853C11.658 21.2375 10.9114 21.1236 10.2128 20.8513C9.51417 20.5789 8.87976 20.1544 8.35216 19.6063C7.82457 19.0581 7.41599 18.399 7.15388 17.6733C6.89178 16.9475 6.7822 16.1719 6.83252 15.3985C6.88285 14.6251 7.0919 13.8719 7.44564 13.1894C7.79938 12.5069 8.28962 11.9109 8.88342 11.4415H8.88394Z" fill="#215329"/>
<path d="M11.5707 13.5004L12.3985 14.3383L12.2039 15.5217C12.1898 15.6075 12.199 15.6957 12.2306 15.7764C12.2621 15.857 12.3148 15.9269 12.3826 15.9781C12.4504 16.0293 12.5307 16.0597 12.6143 16.066C12.6978 16.0723 12.7815 16.0541 12.8557 16.0136L13.8783 15.455L14.9014 16.0136C14.9756 16.054 15.0592 16.0721 15.1428 16.0658C15.2263 16.0594 15.3065 16.029 15.3743 15.9778C15.4421 15.9266 15.4947 15.8568 15.5263 15.7762C15.5579 15.6956 15.5672 15.6074 15.5532 15.5217L15.3578 14.3383L16.1854 13.5004C16.2453 13.4396 16.2877 13.3626 16.3077 13.2781C16.3277 13.1936 16.3246 13.1049 16.2987 13.0222C16.2728 12.9394 16.2252 12.8658 16.1612 12.8096C16.0971 12.7535 16.0193 12.7171 15.9364 12.7045L14.7921 12.5312L14.2805 11.4552C14.2434 11.3772 14.186 11.3115 14.1148 11.2656C14.0436 11.2196 13.9615 11.1953 13.8777 11.1953C13.7939 11.1953 13.7117 11.2196 13.6405 11.2656C13.5694 11.3115 13.5119 11.3772 13.4748 11.4552L12.9635 12.5312L11.8189 12.7045C11.736 12.7171 11.6582 12.7535 11.5941 12.8096C11.5301 12.8658 11.4825 12.9394 11.4566 13.0222C11.4307 13.1049 11.4276 13.1936 11.4476 13.2781C11.4676 13.3626 11.51 13.4396 11.5699 13.5004H11.5707ZM13.3264 13.4204C13.3984 13.4095 13.4668 13.3806 13.5257 13.3361C13.5846 13.2917 13.6322 13.233 13.6645 13.1652L13.8775 12.7165L14.0908 13.1652C14.1231 13.2331 14.1708 13.2917 14.2297 13.3362C14.2886 13.3806 14.3571 13.4095 14.4291 13.4204L14.9055 13.4924L14.5606 13.8415C14.5086 13.8945 14.4698 13.9598 14.4474 14.0317C14.4251 14.1037 14.4199 14.1803 14.4322 14.2548L14.5138 14.7478L14.0875 14.515C14.0231 14.4797 13.9513 14.4612 13.8784 14.4612C13.8056 14.4612 13.7338 14.4797 13.6694 14.515L13.2433 14.7478L13.3244 14.2545C13.3368 14.18 13.3316 14.1035 13.3092 14.0316C13.2869 13.9596 13.248 13.8944 13.196 13.8415L12.8495 13.4911L13.3264 13.4204Z" fill="#215329"/>
</svg>
