<svg width="21" height="18" viewBox="0 0 21 18" fill="none" xmlns="http://www.w3.org/2000/svg">
<path d="M10.3655 13.2629C7.56886 13.2629 5.29688 11.3587 5.29688 9.01476C5.29688 6.67083 7.56886 4.7666 10.3655 4.7666C13.1621 4.7666 15.4341 6.67083 15.4341 9.01476C15.4341 11.3587 13.1621 13.2629 10.3655 13.2629ZM10.3655 5.50752C8.06044 5.50752 6.18088 7.07937 6.18088 9.01476C6.18088 10.9501 8.05631 12.522 10.3655 12.522C12.6746 12.522 14.5501 10.9501 14.5501 9.01476C14.5501 7.07937 12.6746 5.50752 10.3655 5.50752Z" fill="white"/>
<path d="M6.41691 5.31369C6.54497 5.43833 6.53258 5.62183 6.38386 5.72916C6.23515 5.83649 6.01208 5.82264 5.88816 5.70146L3.26918 3.19134C3.14112 3.0667 3.15764 2.8832 3.30222 2.77587C3.4468 2.66854 3.66987 2.67893 3.79793 2.80357L6.41691 5.31369Z" fill="white"/>
<path d="M10.7292 3.95654C10.7292 4.11927 10.5722 4.25083 10.3822 4.2543C10.1881 4.2543 10.0311 4.12619 10.027 3.96001L9.99805 0.625877C9.99805 0.463152 10.155 0.328125 10.345 0.328125C10.5392 0.328125 10.6962 0.456228 10.7003 0.622415L10.7292 3.95654Z" fill="white"/>
<path d="M4.34698 8.20473C4.54113 8.21858 4.68571 8.36053 4.66919 8.52325C4.65266 8.68598 4.4833 8.80716 4.28915 8.79331L0.323496 8.52325C0.129344 8.5094 -0.015237 8.36745 0.0012865 8.20473C0.01781 8.042 0.187176 7.92082 0.381328 7.93467L4.34698 8.20473Z" fill="white"/>
<path d="M4.98692 11.3622C5.15216 11.2756 5.3711 11.3172 5.47437 11.4522C5.57764 11.5907 5.52807 11.7707 5.36283 11.8608L2.00029 13.6403C1.83506 13.7269 1.61612 13.6854 1.51285 13.5503C1.40958 13.4118 1.45915 13.2318 1.62438 13.1418L4.98692 11.3587V11.3622Z" fill="white"/>
<path d="M7.99025 13.5608C8.06047 13.4085 8.26288 13.3323 8.44464 13.3877C8.6264 13.4465 8.71728 13.6162 8.65119 13.7685L7.25082 16.888C7.18059 17.0403 6.97818 17.1165 6.80055 17.0611C6.61466 17.0022 6.52378 16.8326 6.59401 16.6803L7.99438 13.5608H7.99025Z" fill="white"/>
<path d="M15.5869 11.9854C15.4134 11.9093 15.3473 11.7327 15.4382 11.5873C15.5291 11.4419 15.7398 11.3865 15.9133 11.4626L19.4328 13.0137C19.6063 13.0899 19.6724 13.2699 19.5815 13.4119C19.4906 13.5573 19.2799 13.6127 19.1064 13.5365L15.5869 11.9854Z" fill="white"/>
<path d="M16.3931 8.38819C16.1989 8.40551 16.0254 8.29125 16.0048 8.13199C15.98 7.96926 16.1205 7.82385 16.3146 7.80308L20.2637 7.41531C20.4579 7.398 20.6314 7.51225 20.652 7.67497C20.6768 7.8377 20.5364 7.98311 20.3422 8.00389L16.3931 8.39166V8.38819Z" fill="white"/>
<path d="M13.8024 16.6975C13.8685 16.8499 13.7735 17.0195 13.5876 17.0749C13.4017 17.1269 13.2034 17.0472 13.1373 16.8949L11.8155 13.7512C11.7494 13.5988 11.8485 13.4292 12.0303 13.3738C12.212 13.3184 12.4144 13.398 12.4805 13.5538L13.8024 16.6975Z" fill="white"/>
<path d="M14.4511 5.39348C14.3313 5.52158 14.1124 5.54582 13.9554 5.44541C13.8025 5.34501 13.7736 5.16151 13.8934 5.02995L16.343 2.40211C16.4628 2.27401 16.6859 2.24977 16.8387 2.35018C16.9916 2.45058 17.0205 2.63754 16.8966 2.76565L14.447 5.39348H14.4511Z" fill="white"/>
</svg>
