<svg width="24" height="19" viewBox="0 0 24 19" fill="none" xmlns="http://www.w3.org/2000/svg">
<path d="M13.6546 0.454704C15.3249 1.49599 16.6449 3.09075 17.3025 5.07482C18.8 9.6152 16.2513 14.4839 11.6051 15.9473C11.2019 16.074 10.7987 16.1631 10.3955 16.2335C12.541 17.5749 15.2577 18.0018 17.8737 17.1762C22.5199 15.7128 25.0686 10.8441 23.5711 6.30373C22.2031 2.15735 17.9265 -0.267629 13.6594 0.454704H13.6546Z" fill="white"/>
<path d="M6.11269 18.4026L3.86636 17.4692L1.80723 18.745L2.02802 16.3669L0.146484 14.8472L2.52721 14.3219L3.42958 12.1033L4.68233 14.1483L7.11585 14.2984L5.50791 16.0949L6.11269 18.4026Z" fill="white"/>
<path d="M4.74704 7.53975L2.9567 6.79397L1.31996 7.80711L1.49275 5.92154L0 4.70671L1.89114 4.28925L2.60631 2.52563L3.60468 4.14854L5.54382 4.27049L4.26706 5.70109L4.74704 7.53975Z" fill="white"/>
<path d="M12.7702 10.4185L11.2343 9.7806L9.82311 10.6483L9.9719 9.02544L8.68555 7.97946L10.3175 7.62299L10.9319 6.10327L11.791 7.50572L13.4566 7.60891L12.3574 8.83782L12.7702 10.4185Z" fill="white"/>
</svg>
