<svg width="24" height="19" viewBox="0 0 24 19" fill="none" xmlns="http://www.w3.org/2000/svg">
<path d="M24.0003 9.77176C23.9741 12.7484 23.0279 15.649 21.1429 18.201C20.9933 18.4053 20.8212 18.5335 20.5707 18.4774C20.2079 18.3933 20.0919 17.9566 20.3238 17.6C20.6604 17.0913 21.0232 16.5985 21.3187 16.0656C23.8694 11.4784 23.5179 5.76948 20.4398 1.56287C20.4024 1.51079 20.365 1.46272 20.3276 1.41063C20.1181 1.11016 20.1368 0.805684 20.3762 0.609376C20.5968 0.425087 20.8998 0.473162 21.0943 0.753603C21.4309 1.23836 21.7787 1.71912 22.0742 2.23192C23.3533 4.45541 23.9854 6.87922 24.0003 9.76775V9.77176Z" fill="#215329"/>
<path d="M8.70198 9.53206C8.70198 8.42232 8.70198 7.31258 8.70198 6.19883C8.70198 5.20527 9.51358 4.70448 10.3214 5.20126C12.1092 6.30299 13.8932 7.40873 15.6772 8.51847C16.5113 9.03929 16.5113 10.0328 15.6772 10.5497C13.8932 11.6554 12.1055 12.7611 10.3177 13.8589C9.50984 14.3556 8.70198 13.8589 8.69824 12.8573C8.69824 11.7475 8.69824 10.6378 8.69824 9.52405L8.70198 9.53206ZM9.72677 12.9614C11.5968 11.8277 13.4519 10.7059 15.3668 9.54809C13.4594 8.36623 11.623 7.22844 9.72677 6.0506V12.9614Z" fill="#215329"/>
<path d="M-0.000976562 9.15965C0.0252041 6.24708 0.978927 3.3305 2.88637 0.770481C3.03224 0.574173 3.20428 0.466003 3.43991 0.522091C3.64561 0.570167 3.80269 0.726412 3.79521 0.934739C3.78773 1.12704 3.70919 1.34338 3.59699 1.49963C2.90133 2.45312 2.30292 3.46671 1.89899 4.59649C0.26831 9.13962 0.791922 13.3863 3.46983 17.3245C3.53715 17.4206 3.60821 17.5088 3.67553 17.6089C3.86628 17.8934 3.83636 18.2018 3.60821 18.3901C3.38754 18.5704 3.09582 18.5304 2.90507 18.2619C2.56473 17.7772 2.22064 17.2964 1.92517 16.7836C0.653539 14.5721 0.00650362 12.1123 -0.000976562 9.15965Z" fill="#215329"/>
<path d="M3.59261 9.5237C3.60757 7.5486 4.15736 5.75779 5.25321 4.16328C5.31305 4.07514 5.37663 3.983 5.45891 3.9189C5.6534 3.76666 5.86284 3.77067 6.04985 3.93492C6.22563 4.08716 6.28921 4.29549 6.19571 4.52385C6.14709 4.64003 6.07603 4.74419 6.00496 4.84836C4.11248 7.62472 4.10874 11.4267 5.99749 14.203C6.06107 14.2992 6.13587 14.3913 6.18449 14.4995C6.28921 14.7239 6.22563 14.9883 6.03863 15.1405C5.8591 15.2847 5.59356 15.2807 5.42151 15.1165C5.35419 15.0484 5.29435 14.9682 5.23825 14.8881C4.14614 13.2896 3.60383 11.5028 3.58887 9.5237H3.59261Z" fill="#215329"/>
<path d="M20.4036 9.5304C20.3886 11.4775 19.8575 13.2442 18.7916 14.8227C18.7579 14.8748 18.7205 14.9269 18.6831 14.979C18.4811 15.2514 18.1894 15.3115 17.965 15.1352C17.7294 14.9509 17.6995 14.6504 17.8865 14.358C18.0323 14.1296 18.1857 13.9093 18.3203 13.6769C19.8912 10.9446 19.7603 7.43911 17.9987 4.84704C17.9351 4.75089 17.864 4.65474 17.8154 4.55058C17.7107 4.32623 17.778 4.06181 17.965 3.91358C18.1483 3.76535 18.4063 3.77336 18.5784 3.93762C18.642 3.99771 18.6943 4.07383 18.743 4.14594C19.8425 5.74846 20.3923 7.54328 20.4036 9.5304Z" fill="#215329"/>
</svg>
