<svg width="37" height="18" viewBox="0 0 37 18" fill="none" xmlns="http://www.w3.org/2000/svg">
<path d="M10.942 9.18206C11.1748 9.40768 11.5749 9.43207 11.8441 9.23694C12.1133 9.04182 12.1351 8.70034 11.9096 8.48083L7.16605 3.90753C6.93324 3.68192 6.52582 3.66362 6.25663 3.85265C5.98744 4.04778 5.96562 4.38315 6.19843 4.60877L10.942 9.18206Z" fill="white"/>
<path d="M18.1734 7.46856C18.5227 7.46856 18.8137 7.23075 18.8137 6.93196L18.8428 0.870823C18.8428 0.572034 18.559 0.334223 18.2025 0.328125C17.8533 0.328125 17.5623 0.565936 17.5623 0.864725L17.5332 6.92586C17.5332 7.22465 17.8169 7.46246 18.1734 7.46246V7.46856Z" fill="white"/>
<path d="M0.509673 12.2736L7.5886 13.5176C7.93782 13.5785 8.27249 13.3895 8.34524 13.1029C8.418 12.8163 8.19974 12.5297 7.85052 12.4688L0.771586 11.2248C0.422368 11.1638 0.0877015 11.3529 0.0149478 11.6395C-0.0578059 11.9322 0.160455 12.2127 0.509673 12.2736Z" fill="white"/>
<path d="M27.7413 13.0968C27.8141 13.3834 28.1487 13.5725 28.4979 13.5115L35.5841 12.2797C35.9334 12.2188 36.1516 11.9383 36.0789 11.6456C36.0134 11.359 35.6715 11.17 35.3222 11.2309L28.2433 12.4627C27.8941 12.5236 27.6685 12.8041 27.7486 13.0968H27.7413Z" fill="white"/>
<path d="M25.216 9.0357L30.4179 4.82217C30.6725 4.62094 30.6798 4.27947 30.4325 4.06605C30.1851 3.85263 29.785 3.84653 29.5303 4.05385L24.3284 8.26738C24.0738 8.47471 24.0665 8.81008 24.3139 9.0235C24.5612 9.23692 24.9614 9.24302 25.216 9.0357Z" fill="white"/>
<path d="M27.2753 15.9321C27.1517 11.8162 23.1284 8.49902 18.1884 8.49902C13.2484 8.49902 9.22516 11.8162 9.10148 15.9321H0V17.0907H36.3768V15.9321H27.2753ZM18.1884 9.65759C22.3135 9.65759 25.6966 12.3894 25.8858 15.9321H10.4765C10.6002 12.4564 14.0124 9.65759 18.1884 9.65759Z" fill="white"/>
</svg>
