<svg width="24" height="25" viewBox="0 0 24 25" fill="none" xmlns="http://www.w3.org/2000/svg">
<path d="M23.8688 12.1811L20.6171 8.9276V4.32676C20.6171 4.20806 20.57 4.09421 20.486 4.01028C20.4021 3.92634 20.2883 3.87918 20.1696 3.87918H15.5688L12.3163 0.625934C12.2308 0.545064 12.1177 0.5 12 0.5C11.8823 0.5 11.7692 0.545064 11.6837 0.625934L8.43119 3.87842H3.8314C3.71272 3.87842 3.59891 3.92557 3.51499 4.00951C3.43107 4.09344 3.38393 4.20729 3.38393 4.32599V8.9276L0.131163 12.1811C0.0895833 12.2226 0.0565967 12.2719 0.0340904 12.3262C0.0115841 12.3805 0 12.4387 0 12.4975C0 12.5562 0.0115841 12.6144 0.0340904 12.6687C0.0565967 12.723 0.0895833 12.7723 0.131163 12.8139L3.3829 16.0674V20.6682C3.3829 20.7869 3.43005 20.9007 3.51396 20.9847C3.59788 21.0686 3.7117 21.1158 3.83038 21.1158H8.43119L11.6837 24.369C11.7676 24.4529 11.8814 24.5 12 24.5C12.1186 24.5 12.2324 24.4529 12.3163 24.369L15.5688 21.1165H20.1686C20.2873 21.1165 20.4011 21.0694 20.485 20.9854C20.5689 20.9015 20.6161 20.7877 20.6161 20.669V16.0674L23.8688 12.8139C23.9104 12.7723 23.9434 12.723 23.9659 12.6687C23.9884 12.6144 24 12.5562 24 12.4975C24 12.4387 23.9884 12.3805 23.9659 12.3262C23.9434 12.2719 23.9104 12.2226 23.8688 12.1811ZM19.8523 15.5666C19.7684 15.6505 19.7212 15.7643 19.7211 15.883V20.2214H15.3834C15.2654 20.2215 15.1521 20.2683 15.0684 20.3516L12 23.4184L8.93288 20.3516C8.84895 20.2677 8.73519 20.2206 8.61658 20.2206H4.27785V15.8819C4.27779 15.7637 4.23101 15.6504 4.1477 15.5666L1.0793 12.4975L4.1477 9.42838C4.23163 9.34448 4.27882 9.23068 4.27888 9.112V4.77357H8.61658C8.73519 4.77355 8.84895 4.72645 8.93288 4.64262L12 1.57659L15.0684 4.64569C15.1523 4.72952 15.2661 4.77662 15.3847 4.77664H19.7221V9.11302C19.7222 9.2312 19.769 9.34457 19.8523 9.42838L22.9207 12.4975L19.8523 15.5666Z" fill="#215329"/>
<path d="M14.8335 8.34937C14.7148 8.34937 14.601 8.39652 14.5171 8.48046C14.4332 8.56439 14.386 8.67824 14.386 8.79694V14.8638C14.386 15.0998 14.2923 15.3261 14.1255 15.493C13.9586 15.6598 13.7324 15.7536 13.4964 15.7536C13.2605 15.7536 13.0342 15.6598 12.8674 15.493C12.7006 15.3261 12.6069 15.0998 12.6069 14.8638V8.79694C12.6069 8.67824 12.5597 8.56439 12.4758 8.48046C12.3919 8.39652 12.2781 8.34937 12.1594 8.34937C12.0407 8.34937 11.9269 8.39652 11.843 8.48046C11.7591 8.56439 11.7119 8.67824 11.7119 8.79694V14.8638C11.708 15.0972 11.6125 15.3197 11.4461 15.4834C11.2796 15.647 11.0556 15.7387 10.8222 15.7387C10.5888 15.7387 10.3648 15.647 10.1984 15.4834C10.0319 15.3197 9.93645 15.0972 9.9325 14.8638V8.79694C9.9325 8.67824 9.88535 8.56439 9.80143 8.48046C9.71752 8.39652 9.6037 8.34937 9.48502 8.34937H8.64428C8.00435 8.35004 7.39082 8.60459 6.9383 9.05717C6.48577 9.50975 6.23121 10.1234 6.23047 10.7635V11.6039C6.23044 11.6627 6.24199 11.7209 6.26446 11.7752C6.28694 11.8295 6.3199 11.8789 6.36146 11.9205C6.40301 11.962 6.45236 11.995 6.50666 12.0175C6.56097 12.0399 6.61917 12.0515 6.67794 12.0515H9.03755V14.8638C9.03709 15.2265 9.14722 15.5806 9.35326 15.8791C9.5593 16.1775 9.85144 16.4059 10.1907 16.5339C10.5299 16.662 10.9001 16.6834 11.2519 16.5955C11.6037 16.5076 11.9202 16.3144 12.1594 16.0418C12.3985 16.3145 12.7151 16.5077 13.0668 16.5956C13.4186 16.6836 13.7888 16.6621 14.128 16.5341C14.4673 16.4061 14.7594 16.1776 14.9654 15.8791C15.1714 15.5807 15.2815 15.2265 15.281 14.8638V8.79694C15.281 8.67824 15.2338 8.56439 15.1499 8.48046C15.066 8.39652 14.9522 8.34937 14.8335 8.34937ZM7.12542 11.1568V10.7635C7.12589 10.3607 7.28608 9.97461 7.57082 9.68984C7.85557 9.40508 8.24162 9.24493 8.64428 9.24452H9.03755V11.1568H7.12542Z" fill="#215329"/>
<path d="M17.3225 8.34937C17.2038 8.34937 17.09 8.39652 17.0061 8.48046C16.9221 8.56439 16.875 8.67824 16.875 8.79694V16.2012C16.875 16.3199 16.9221 16.4337 17.0061 16.5176C17.09 16.6016 17.2038 16.6487 17.3225 16.6487C17.4412 16.6487 17.555 16.6016 17.6389 16.5176C17.7228 16.4337 17.77 16.3199 17.77 16.2012V8.79694C17.7699 8.67826 17.7227 8.56445 17.6388 8.48053C17.5549 8.39661 17.4411 8.34943 17.3225 8.34937Z" fill="#215329"/>
</svg>
