<svg width="21" height="18" viewBox="0 0 21 18" fill="none" xmlns="http://www.w3.org/2000/svg">
<path d="M14.9914 9.01327C14.9914 11.1534 12.9173 12.8918 10.3639 12.8918C7.81046 12.8918 5.73633 11.1534 5.73633 9.01327C5.73633 6.87317 7.80633 5.13477 10.3639 5.13477C12.9214 5.13477 14.9914 6.87317 14.9914 9.01327Z" fill="white"/>
<path d="M6.41803 5.31125C6.54611 5.43246 6.53372 5.61946 6.38498 5.72681C6.23623 5.83416 6.01725 5.82031 5.88504 5.69911L3.26138 3.19193C3.1333 3.06727 3.14982 2.88027 3.29444 2.77638C3.43905 2.66903 3.66216 2.67942 3.79024 2.80408L6.40977 5.31472L6.41803 5.31125Z" fill="white"/>
<path d="M10.7315 3.95383C10.7315 4.11659 10.5745 4.24818 10.3803 4.25164C10.1862 4.25164 10.025 4.12352 10.025 3.96076L9.99609 0.625938C9.99609 0.459717 10.1531 0.331588 10.3432 0.328125C10.5374 0.328125 10.6944 0.456254 10.6985 0.622476L10.7274 3.95729L10.7315 3.95383Z" fill="white"/>
<path d="M4.34791 8.20282C4.5421 8.21667 4.68671 8.35865 4.67018 8.52141C4.65366 8.68417 4.48426 8.80537 4.29006 8.79152L0.323595 8.52141C0.125272 8.50756 -0.0152074 8.36558 0.00131959 8.20282C0.0137148 8.04006 0.183116 7.92232 0.377308 7.92925L4.34378 8.20282H4.34791Z" fill="white"/>
<path d="M4.9845 11.3611C5.14977 11.2745 5.36875 11.3126 5.47204 11.4511C5.57534 11.5897 5.52989 11.7697 5.36462 11.8598L2.00138 13.6432C1.83611 13.7298 1.61713 13.6917 1.51384 13.5531C1.41054 13.4146 1.46012 13.2346 1.62539 13.1445L4.9845 11.3611Z" fill="white"/>
<path d="M7.99174 13.5601C8.06198 13.4077 8.26444 13.3315 8.44623 13.3869C8.62803 13.4458 8.71893 13.6155 8.65282 13.7679L7.24803 16.888C7.17779 17.0404 6.97533 17.1165 6.79767 17.0611C6.61174 17.0023 6.52084 16.8326 6.59108 16.6802L7.99174 13.5601Z" fill="white"/>
<path d="M15.5899 11.9879C15.4164 11.9117 15.3503 11.7317 15.4412 11.5897C15.5321 11.4442 15.7428 11.3923 15.9163 11.465L19.4365 13.0164C19.6101 13.0926 19.6762 13.2727 19.5853 13.4146C19.4944 13.5601 19.2837 13.6155 19.1101 13.5393L15.5899 11.9879Z" fill="white"/>
<path d="M16.3965 8.38624C16.2023 8.40702 16.0288 8.28928 16.004 8.12652C15.9834 7.96723 16.1197 7.81832 16.3139 7.80101L20.2638 7.40969C20.4622 7.39238 20.6316 7.50665 20.6564 7.66941C20.677 7.83217 20.5407 7.97762 20.3465 7.99839L16.3965 8.38624Z" fill="white"/>
<path d="M13.8055 16.6974C13.8716 16.8498 13.7725 17.0195 13.5907 17.0749C13.4089 17.1269 13.2064 17.0472 13.1445 16.8948L11.8223 13.7505C11.7562 13.5981 11.8554 13.4284 12.0372 13.3765C12.219 13.3211 12.4214 13.4007 12.4875 13.5566L13.8097 16.7009L13.8055 16.6974Z" fill="white"/>
<path d="M14.4541 5.39095C14.3343 5.51908 14.1153 5.54332 13.9583 5.44289C13.8055 5.34247 13.7765 5.15547 13.8964 5.02734L16.3465 2.39896C16.4663 2.27083 16.6853 2.24659 16.8423 2.34702C16.991 2.44744 17.02 2.63444 16.9001 2.76257L14.45 5.39095H14.4541Z" fill="white"/>
</svg>
