<svg width="25" height="26" viewBox="0 0 25 26" fill="none" xmlns="http://www.w3.org/2000/svg">
<path d="M12.5209 3.26611C9.07295 3.26611 6.27086 6.0682 6.27086 9.51611V12.5265C6.27086 13.1619 6.00003 14.1307 5.67711 14.6724L4.4792 16.6619C3.73961 17.8911 4.25003 19.2557 5.6042 19.714C10.0938 21.214 14.9375 21.214 19.4271 19.714C20.6875 19.2974 21.2396 17.8078 20.5521 16.6619L19.3542 14.6724C19.0417 14.1307 18.7709 13.1619 18.7709 12.5265V9.51611C18.7709 6.07861 15.9584 3.26611 12.5209 3.26611Z" stroke="white" stroke-width="1.5" stroke-miterlimit="10" stroke-linecap="round"/>
<path d="M14.4479 3.56812C14.125 3.47437 13.7917 3.40145 13.4479 3.35978C12.4479 3.23478 11.4896 3.3077 10.5938 3.56812C10.8958 2.79728 11.6458 2.25562 12.5208 2.25562C13.3958 2.25562 14.1458 2.79728 14.4479 3.56812Z" stroke="white" stroke-width="1.5" stroke-miterlimit="10" stroke-linecap="round" stroke-linejoin="round"/>
<path d="M15.6455 20.0891C15.6455 21.8079 14.2393 23.2141 12.5205 23.2141C11.6663 23.2141 10.8747 22.8599 10.3122 22.2974C9.74967 21.7349 9.39551 20.9433 9.39551 20.0891" stroke="white" stroke-width="1.5" stroke-miterlimit="10"/>
</svg>
