<svg width="24" height="25" viewBox="0 0 24 25" fill="none" xmlns="http://www.w3.org/2000/svg">
<path d="M12 0.5C9.62663 0.5 7.30655 1.20379 5.33316 2.52236C3.35977 3.84094 1.8217 5.71508 0.913451 7.9078C0.00519929 10.1005 -0.232441 12.5133 0.230582 14.8411C0.693605 17.1689 1.83649 19.307 3.51472 20.9853C5.19295 22.6635 7.33115 23.8064 9.65892 24.2694C11.9867 24.7324 14.3995 24.4948 16.5922 23.5865C18.7849 22.6783 20.6591 21.1402 21.9776 19.1668C23.2962 17.1934 24 14.8734 24 12.5C23.9966 9.31844 22.7312 6.26817 20.4815 4.01847C18.2318 1.76877 15.1816 0.503397 12 0.5ZM12 23.6016C9.80431 23.6016 7.65793 22.9505 5.83228 21.7306C4.00663 20.5108 2.58371 18.7769 1.74346 16.7484C0.903206 14.7198 0.683357 12.4877 1.11172 10.3342C1.54007 8.18068 2.5974 6.20257 4.14998 4.64998C5.70257 3.09739 7.68069 2.04007 9.83419 1.61171C11.9877 1.18335 14.2198 1.4032 16.2484 2.24345C18.277 3.08371 20.0108 4.50663 21.2306 6.33228C22.4505 8.15793 23.1016 10.3043 23.1016 12.5C23.0982 15.4433 21.9275 18.265 19.8463 20.3463C17.765 22.4275 14.9433 23.5982 12 23.6016Z" fill="#215329"/>
<path d="M19.1473 5.43707C19.1352 5.4199 19.1219 5.4036 19.1075 5.3883C19.0922 5.37397 19.076 5.36068 19.059 5.34851C17.1799 3.48727 14.6419 2.44312 11.9971 2.44312C9.3522 2.44312 6.81428 3.48727 4.93516 5.34851C4.91812 5.36068 4.90192 5.37397 4.88665 5.3883C4.87226 5.4036 4.85896 5.4199 4.84686 5.43707C2.98559 7.31606 1.94141 9.85391 1.94141 12.4987C1.94141 15.1435 2.98559 17.6814 4.84686 19.5604C4.87009 19.5956 4.90022 19.6257 4.93542 19.6489C6.81441 21.5102 9.35227 22.5544 11.9971 22.5544C14.6419 22.5544 17.1797 21.5102 19.0587 19.6489C19.0939 19.6257 19.124 19.5956 19.1473 19.5604C21.0085 17.6814 22.0527 15.1435 22.0527 12.4987C22.0527 9.85391 21.0085 7.31606 19.1473 5.43707ZM20.8201 12.9479H21.1427C21.0406 15.0643 20.2049 17.0791 18.7789 18.6463L18.5536 18.4209C18.4693 18.3367 18.355 18.2894 18.2359 18.2894C18.1168 18.2894 18.0025 18.3367 17.9183 18.4209C17.834 18.5052 17.7867 18.6194 17.7867 18.7386C17.7867 18.8577 17.834 18.972 17.9183 19.0562L18.1436 19.2816C16.5764 20.7075 14.5616 21.5433 12.4452 21.6454V21.322C12.4452 21.2029 12.3979 21.0886 12.3137 21.0044C12.2294 20.9201 12.1152 20.8728 11.996 20.8728C11.8769 20.8728 11.7626 20.9201 11.6784 21.0044C11.5942 21.0886 11.5468 21.2029 11.5468 21.322V21.6444C9.43047 21.5423 7.41567 20.7065 5.84845 19.2806L6.07382 19.0552C6.11553 19.0135 6.14862 18.9639 6.17119 18.9094C6.19375 18.8549 6.20536 18.7965 6.20535 18.7375C6.20534 18.6785 6.19371 18.62 6.17112 18.5655C6.14852 18.511 6.11542 18.4615 6.07369 18.4198C6.03196 18.3781 5.98242 18.345 5.9279 18.3224C5.87338 18.2998 5.81495 18.2882 5.75595 18.2882C5.69695 18.2883 5.63852 18.2999 5.58401 18.3225C5.5295 18.3451 5.47998 18.3782 5.43827 18.4199L5.21315 18.6453C3.78723 17.0781 2.95145 15.0633 2.84935 12.9469H3.17174C3.29088 12.9469 3.40513 12.8996 3.48937 12.8153C3.57361 12.7311 3.62094 12.6168 3.62094 12.4977C3.62094 12.3786 3.57361 12.2643 3.48937 12.1801C3.40513 12.0958 3.29088 12.0485 3.17174 12.0485H2.8514C2.9535 9.93212 3.78928 7.91732 5.21521 6.3501L5.44032 6.57547C5.52456 6.65974 5.63884 6.70711 5.758 6.70713C5.87717 6.70715 5.99146 6.65984 6.07574 6.57559C6.16002 6.49135 6.20738 6.37707 6.20741 6.25791C6.20743 6.13874 6.16011 6.02445 6.07587 5.94017L5.8505 5.7148C7.41773 4.28887 9.43252 3.4531 11.5489 3.351V3.67339C11.5489 3.79253 11.5962 3.90678 11.6805 3.99102C11.7647 4.07526 11.879 4.12259 11.9981 4.12259C12.1172 4.12259 12.2315 4.07526 12.3157 3.99102C12.4 3.90678 12.4473 3.79253 12.4473 3.67339V3.35305C14.5637 3.45515 16.5785 4.29093 18.1457 5.71686L17.9203 5.94222C17.8361 6.02647 17.7887 6.14073 17.7887 6.25987C17.7887 6.37901 17.8361 6.49327 17.9203 6.57752C18.0046 6.66176 18.1188 6.70909 18.238 6.70909C18.3571 6.70909 18.4714 6.66176 18.5556 6.57752L18.781 6.35215C20.2069 7.91938 21.0427 9.93417 21.1448 12.0505H20.8201C20.7009 12.0505 20.5867 12.0979 20.5025 12.1821C20.4182 12.2664 20.3709 12.3806 20.3709 12.4997C20.3709 12.6189 20.4182 12.7331 20.5025 12.8174C20.5867 12.9016 20.7009 12.9489 20.8201 12.9489V12.9479Z" fill="#215329"/>
<path d="M16.3405 9.53044L9.57636 7.83632C9.51913 7.82192 9.45963 7.81895 9.40126 7.82758C9.34289 7.83622 9.28679 7.85629 9.23619 7.88664C9.18559 7.917 9.14148 7.95704 9.10638 8.00448C9.07129 8.05192 9.0459 8.10581 9.03167 8.16308L8.42564 10.5823L8.3589 10.8493L7.33756 14.927C7.30875 15.0426 7.32702 15.1649 7.38833 15.267C7.44965 15.3691 7.54901 15.4427 7.66457 15.4717L9.18235 15.8518L10.504 16.1827L14.4277 17.1653C14.485 17.1798 14.5445 17.1829 14.603 17.1744C14.6614 17.1659 14.7176 17.1459 14.7684 17.1156C14.8191 17.0853 14.8633 17.0452 14.8985 16.9978C14.9337 16.9503 14.9591 16.8963 14.9734 16.839L15.9945 12.7621L16.1267 12.2341L16.6673 10.0756C16.6962 9.96001 16.6781 9.83761 16.6168 9.73537C16.5555 9.63312 16.4561 9.55941 16.3405 9.53044ZM15.6867 10.2936L15.5797 10.7212L9.68699 9.24475L9.79403 8.81686L15.6867 10.2936ZM9.41003 10.3464L9.46778 10.1154L15.3602 11.5911L15.2319 12.1068L9.33944 10.6308L9.41003 10.3464ZM10.828 15.3382L10.5507 15.2689L9.83612 15.0892L10.3141 13.181L11.3059 13.4292L10.828 15.3382ZM14.2098 16.1852L11.6994 15.5564L12.2864 13.2123C12.3008 13.1551 12.3038 13.0956 12.2951 13.0372C12.2865 12.9788 12.2664 12.9227 12.236 12.8721C12.2057 12.8215 12.1657 12.7774 12.1182 12.7422C12.0708 12.7071 12.0169 12.6817 11.9597 12.6674L10.0964 12.201C9.98112 12.1723 9.85918 12.1905 9.75728 12.2515C9.65538 12.3126 9.58183 12.4115 9.55274 12.5267L8.9657 14.8708L8.31809 14.7085L9.12126 11.5023L15.014 12.9782L14.2098 16.1852Z" fill="#215329"/>
<path d="M11.7695 7.84422L14.3934 8.50133C14.4698 8.52044 14.55 8.51908 14.6258 8.49741C14.7015 8.47573 14.7703 8.4345 14.8251 8.37785C14.8799 8.3212 14.9188 8.25113 14.938 8.17467C14.9571 8.09822 14.9558 8.01807 14.9342 7.94227L14.1916 5.34129C14.17 5.26544 14.1287 5.19663 14.072 5.14178C14.0154 5.08693 13.9452 5.04797 13.8687 5.02882C13.7922 5.00967 13.712 5.01101 13.6361 5.0327C13.5603 5.05438 13.4915 5.09566 13.4367 5.15237L11.5557 7.09624C11.501 7.15295 11.4621 7.22305 11.4431 7.29951C11.424 7.37597 11.4253 7.4561 11.447 7.53187C11.4687 7.60764 11.5099 7.67638 11.5665 7.7312C11.6231 7.78603 11.6931 7.825 11.7695 7.84422ZM13.5414 6.33722L13.8569 7.44097L12.7426 7.16195L13.5414 6.33722Z" fill="#215329"/>
<path d="M12.2293 17.1557L9.60523 16.4986C9.52874 16.4794 9.44856 16.4807 9.37274 16.5024C9.29692 16.524 9.22813 16.5652 9.1733 16.6219C9.11846 16.6786 9.0795 16.7487 9.06034 16.8251C9.04118 16.9016 9.04249 16.9818 9.06414 17.0576L9.80698 19.6586C9.82848 19.7346 9.86963 19.8035 9.92628 19.8585C9.98292 19.9135 10.0531 19.9525 10.1296 19.9718C10.1654 19.9806 10.2021 19.9851 10.239 19.9851C10.2992 19.9851 10.3588 19.973 10.4142 19.9495C10.4696 19.926 10.5198 19.8916 10.5616 19.8483L12.4429 17.9044C12.4977 17.8478 12.5366 17.7777 12.5557 17.7012C12.5749 17.6248 12.5736 17.5446 12.5519 17.4688C12.5303 17.393 12.4891 17.3243 12.4325 17.2694C12.3758 17.2146 12.3058 17.1756 12.2293 17.1565V17.1557ZM10.4572 18.6627L10.1417 17.5589L11.256 17.838L10.4572 18.6627Z" fill="#215329"/>
</svg>
