<svg width="24" height="19" viewBox="0 0 24 19" fill="none" xmlns="http://www.w3.org/2000/svg">
<path d="M23.7179 2.57816C23.5675 2.31676 23.3648 2.10267 23.1276 1.95466C22.8904 1.80664 22.626 1.7292 22.3574 1.72911C22.0304 1.72815 21.7109 1.84384 21.441 2.06089L21.0411 2.37849L20.0931 0.731978C20.0362 0.633157 19.9525 0.55991 19.8556 0.524194C19.7587 0.488478 19.6544 0.492402 19.5597 0.535325C16.878 1.81352 14.3477 3.49235 12.0312 5.53035C9.00782 2.19963 4.60184 0.592331 4.41009 0.523563C4.3182 0.490461 4.21968 0.492905 4.12906 0.530534C4.03844 0.568163 3.96049 0.638988 3.9067 0.732581L2.95897 2.37879L2.5616 2.063C2.29126 1.84482 1.97085 1.72837 1.64288 1.72911C1.40085 1.72911 1.16182 1.79194 0.942859 1.91311C0.723902 2.03428 0.530435 2.2108 0.376291 2.43004C0.222147 2.64928 0.111133 2.90583 0.0511884 3.18134C-0.00875656 3.45686 -0.0161522 3.74453 0.0295303 4.02379C0.0698761 4.27261 0.151929 4.50951 0.270915 4.72072C0.389902 4.93193 0.543446 5.11323 0.722616 5.25408L9.07199 11.8896L5.20124 14.9645C5.02042 15.1052 4.86512 15.2866 4.74432 15.4982C4.62353 15.7098 4.53963 15.9474 4.49748 16.1974C4.45534 16.4473 4.45577 16.7046 4.49877 16.9543C4.54177 17.2041 4.62647 17.4413 4.74798 17.6524C4.86949 17.8634 5.0254 18.0441 5.2067 18.1839C5.388 18.3237 5.59108 18.4199 5.80421 18.4669C6.01735 18.5139 6.2363 18.5108 6.44841 18.4578C6.66052 18.4048 6.86158 18.3029 7.03997 18.158L11.9991 14.2177L16.9593 18.1583C17.3196 18.4451 17.7621 18.5522 18.1896 18.4561C18.6171 18.36 18.9946 18.0685 19.2393 17.6456C19.3603 17.4356 19.4449 17.1997 19.4882 16.9513C19.5316 16.7029 19.5329 16.4469 19.492 16.198C19.4512 15.949 19.369 15.7119 19.2501 15.5003C19.1313 15.2886 18.9781 15.1066 18.7993 14.9645L14.9273 11.8902L23.2777 5.25468C23.4564 5.11318 23.6095 4.93162 23.7284 4.72043C23.8472 4.50924 23.9295 4.27256 23.9703 4.02397C24.0112 3.77537 24.0098 3.51975 23.9664 3.27175C23.9231 3.02375 23.8384 2.78825 23.7174 2.57876L23.7179 2.57816ZM18.4954 17.0532C18.3816 17.2402 18.2109 17.3684 18.0188 17.4114C17.8266 17.4544 17.6277 17.4087 17.4635 17.2839L12.8018 13.5807L14.1261 12.5278L18.2967 15.8407C18.4596 15.9708 18.572 16.1715 18.6092 16.3987C18.6465 16.626 18.6055 16.8613 18.4954 17.0532ZM4.46015 1.65522C5.55137 2.09889 9.25296 3.74782 11.6824 6.60169C11.7604 6.69343 11.8644 6.7482 11.9746 6.75554C12.0847 6.76288 12.1934 6.72229 12.2797 6.6415C15.1532 3.95563 18.5057 2.19511 19.553 1.67874L20.2974 2.96995L12.0009 9.56263L3.70366 2.96995L4.46015 1.65522ZM1.22575 4.3794C1.14494 4.31552 1.07566 4.23351 1.02191 4.13808C0.968158 4.04266 0.930983 3.93569 0.91252 3.82333C0.894058 3.71097 0.894672 3.59543 0.914329 3.48335C0.933985 3.37127 0.972296 3.26486 1.02706 3.17023C1.09512 3.05171 1.18686 2.9546 1.29427 2.8874C1.40167 2.8202 1.52146 2.78496 1.64314 2.78476C1.79066 2.78455 1.93473 2.83716 2.05617 2.93557L11.1513 10.1625L11.1982 10.2002L9.87341 11.2529L1.22575 4.3794ZM23.0895 3.82352C23.0713 3.93591 23.0343 4.04293 22.9806 4.13836C22.9268 4.23379 22.8575 4.31572 22.7766 4.3794L6.53607 17.2846C6.37183 17.4087 6.17326 17.454 5.9814 17.4111C5.78954 17.3682 5.61905 17.2403 5.50517 17.0538C5.39478 16.8619 5.35371 16.6263 5.39096 16.3988C5.42821 16.1714 5.54073 15.9705 5.70385 15.8404L10.1219 12.3299L10.1257 12.3278L11.7057 11.0713L21.9465 2.93376C22.0674 2.8364 22.2106 2.78444 22.3572 2.78476C22.4789 2.78499 22.5987 2.82028 22.7061 2.88753C22.8135 2.95479 22.9052 3.05195 22.9732 3.17053C23.0284 3.26493 23.067 3.37129 23.0868 3.4834C23.1066 3.59552 23.1072 3.71114 23.0885 3.82352H23.0895Z" fill="#215329"/>
</svg>
