<svg width="18" height="25" viewBox="0 0 18 25" fill="none" xmlns="http://www.w3.org/2000/svg">
<path d="M16.5907 18.0097H16.0956V6.98892H16.5907C16.9608 6.98412 17.3141 6.84526 17.574 6.60236C17.8339 6.35947 17.9796 6.03206 17.9796 5.69094C17.9796 5.34983 17.8339 5.02242 17.574 4.77953C17.3141 4.53663 16.9608 4.39777 16.5907 4.39297H15.9553C15.6809 2.49286 10.2558 0.839114 9.14512 0.520245C9.05049 0.493252 8.94923 0.493252 8.8546 0.520245C7.74419 0.839114 2.31907 2.49286 2.04474 4.39297H1.4093C1.03915 4.39777 0.685926 4.53663 0.426012 4.77953C0.166098 5.02242 0.0203854 5.34983 0.0203854 5.69094C0.0203854 6.03206 0.166098 6.35947 0.426012 6.60236C0.685926 6.84526 1.03915 6.98412 1.4093 6.98892H1.90493V18.0097H1.4093C1.03553 18.0097 0.677071 18.1465 0.412775 18.3901C0.14848 18.6336 0 18.9639 0 19.3083C0 19.6528 0.14848 19.9831 0.412775 20.2266C0.677071 20.4701 1.03553 20.607 1.4093 20.607H2.0453C2.31963 22.5073 7.74474 24.1608 8.8546 24.4797C8.94921 24.5068 9.05051 24.5068 9.14512 24.4797C10.2558 24.1608 15.6809 22.5073 15.9544 20.607H16.5907C16.9645 20.607 17.3229 20.4701 17.5872 20.2266C17.8515 19.9831 18 19.6528 18 19.3083C18 18.9639 17.8515 18.6336 17.5872 18.3901C17.3229 18.1465 16.9645 18.0097 16.5907 18.0097ZM11.8164 6.98892V18.0097H11.1572V10.5009C11.1689 10.0847 11.0625 9.67301 10.8486 9.30638C10.6346 8.93976 10.3206 8.63094 9.9374 8.41046L9.2453 8.04016C9.1708 8.00026 9.08617 7.97924 9 7.97924C8.91383 7.97924 8.8292 8.00026 8.7547 8.04016L8.0626 8.41046C7.67944 8.63094 7.36536 8.93976 7.15142 9.30638C6.93748 9.67301 6.8311 10.0847 6.84279 10.5009V18.0097H6.18363V6.98892H11.8164ZM10.1805 18.0097H7.81954V10.5009C7.81008 10.2427 7.87255 9.98664 8.00099 9.75706C8.12942 9.52748 8.31954 9.33204 8.55321 9.18938L8.99972 8.95023L9.44623 9.18938C9.6799 9.33204 9.87002 9.52748 9.99845 9.75706C10.1269 9.98664 10.1894 10.2427 10.1799 10.5009L10.1805 18.0097ZM14.4444 18.0097V10.5009C14.4358 10.2525 14.4927 10.006 14.6102 9.78239C14.7276 9.55877 14.9022 9.36473 15.1189 9.21689V18.0115L14.4444 18.0097ZM15.1189 8.1708L14.6752 8.41072C14.2949 8.63291 13.9837 8.94226 13.7721 9.3085C13.5605 9.67474 13.4557 10.0853 13.4679 10.5001V18.0089H12.7931V6.98892H15.1189V8.1708ZM9 1.42157C12.4473 2.42883 14.6665 3.68734 14.9587 4.39297H3.04102C3.33488 3.68811 5.55237 2.42935 9 1.42157ZM0.977023 5.6903C0.977319 5.58484 1.02299 5.48378 1.10403 5.4093C1.18507 5.33483 1.29485 5.293 1.4093 5.293H16.5907C16.7033 5.29564 16.8104 5.33872 16.889 5.41306C16.9677 5.4874 17.0117 5.58712 17.0117 5.69094C17.0117 5.79477 16.9677 5.89448 16.889 5.96882C16.8104 6.04316 16.7033 6.08625 16.5907 6.08889H1.4093C1.2947 6.08889 1.18479 6.04696 1.10373 5.97231C1.02267 5.89767 0.977097 5.79641 0.977023 5.69082V5.6903ZM5.20688 6.98841V18.0097H4.53237V10.5009C4.54452 10.0861 4.43967 9.67555 4.22806 9.30933C4.01645 8.9431 3.70533 8.63374 3.32512 8.41149L2.8814 8.17157V6.98867L5.20688 6.98841ZM2.88112 9.21561C3.09781 9.36344 3.27237 9.55748 3.38984 9.7811C3.50732 10.0047 3.56421 10.2513 3.55563 10.4996V18.0084H2.88112V9.21561ZM9 23.5771C5.55237 22.5698 3.33488 21.3113 3.04102 20.6057H14.9587C14.6665 21.3108 12.4473 22.5693 9 23.5771ZM16.5907 19.7056H1.4093C1.29458 19.7056 1.18456 19.6636 1.10344 19.5889C1.02232 19.5141 0.976744 19.4128 0.976744 19.3071C0.976744 19.2013 1.02232 19.1 1.10344 19.0252C1.18456 18.9505 1.29458 18.9085 1.4093 18.9085H16.5907C16.7054 18.9085 16.8154 18.9505 16.8966 19.0252C16.9777 19.1 17.0233 19.2013 17.0233 19.3071C17.0233 19.4128 16.9777 19.5141 16.8966 19.5889C16.8154 19.6636 16.7054 19.7056 16.5907 19.7056Z" fill="#215329"/>
</svg>
