<svg width="24" height="25" viewBox="0 0 24 25" fill="none" xmlns="http://www.w3.org/2000/svg">
<path d="M0.42966 5.61519L2.59985 5.93694C2.62756 5.94101 2.65559 5.94307 2.68368 5.94311C2.81051 5.94293 2.93264 5.90039 3.02586 5.82392C3.11909 5.74746 3.1766 5.64264 3.187 5.53025C3.1974 5.41786 3.15993 5.3061 3.08202 5.21711C3.00411 5.12813 2.89144 5.06841 2.76634 5.0498L0.595864 4.72804C0.529857 4.71731 0.462108 4.71836 0.396563 4.73113C0.331017 4.74391 0.268985 4.76815 0.214078 4.80244C0.159172 4.83674 0.112489 4.8804 0.0767483 4.9309C0.0410075 4.98139 0.0169234 5.0377 0.00589814 5.09655C-0.00512709 5.1554 -0.00287295 5.21561 0.0125294 5.27368C0.0279318 5.33174 0.0561741 5.38651 0.0956123 5.43477C0.13505 5.48304 0.184896 5.52385 0.242246 5.55483C0.299596 5.5858 0.363304 5.60632 0.42966 5.61519Z" fill="#215329"/>
<path d="M3.19527 9.16094C3.17936 9.10357 3.1509 9.04956 3.1115 9.00197C3.07211 8.95439 3.02255 8.91418 2.96567 8.88363C2.90879 8.85308 2.8457 8.8328 2.78 8.82394C2.7143 8.81507 2.64728 8.81781 2.58277 8.83198L0.446394 9.30074C0.31607 9.32934 0.20386 9.40279 0.134447 9.50494C0.0650341 9.60709 0.0441056 9.72957 0.0762649 9.84544C0.108424 9.96131 0.191037 10.0611 0.305929 10.1228C0.420822 10.1845 0.558584 10.2031 0.688907 10.1745L2.82528 9.70577C2.88981 9.6916 2.95057 9.66626 3.00409 9.63121C3.05761 9.59616 3.10284 9.55208 3.1372 9.50149C3.17155 9.45089 3.19436 9.39478 3.20433 9.33635C3.21429 9.27792 3.21121 9.21831 3.19527 9.16094Z" fill="#215329"/>
<path d="M1.9488 1.33184L3.81751 2.36418C3.87393 2.39629 3.93695 2.41812 4.00294 2.4284C4.06892 2.43868 4.13654 2.4372 4.20187 2.42406C4.26721 2.41091 4.32896 2.38636 4.38353 2.35183C4.43811 2.3173 4.48443 2.27347 4.5198 2.22289C4.55517 2.17231 4.57889 2.11599 4.58958 2.0572C4.60028 1.9984 4.59773 1.93831 4.58209 1.8804C4.56645 1.82249 4.53803 1.76791 4.49847 1.71985C4.45892 1.67178 4.40902 1.63118 4.35167 1.60039L2.48296 0.56779C2.36901 0.504811 2.23158 0.48466 2.10091 0.51177C1.97024 0.53888 1.85704 0.611031 1.78621 0.71235C1.71537 0.813668 1.69271 0.935855 1.7232 1.05203C1.75369 1.16821 1.83484 1.26886 1.9488 1.33184Z" fill="#215329"/>
<path d="M20.4824 17.6193C20.0027 17.1951 19.6223 16.6904 19.3634 16.1346C19.1045 15.5788 18.9722 14.9828 18.9741 14.3812V9.84806C18.9742 9.79067 18.962 9.73379 18.938 9.6805L15.2598 1.52657C15.1018 1.18119 14.8158 0.89419 14.4491 0.71316C14.0825 0.532131 13.6573 0.46794 13.244 0.531229C12.9836 0.573013 12.7369 0.665544 12.5215 0.80218C12.3061 0.938815 12.1274 1.11616 11.9982 1.32149C11.869 1.11616 11.6903 0.938815 11.4749 0.80218C11.2595 0.665544 11.0128 0.573013 10.7524 0.531229C10.3391 0.46768 9.91381 0.531727 9.54712 0.712738C9.18043 0.893748 8.89441 1.18083 8.73655 1.52631L5.05839 9.68153C5.03443 9.73482 5.02216 9.79169 5.02225 9.84909V14.3822C5.02418 14.9838 4.89187 15.5798 4.63297 16.1356C4.37408 16.6915 3.99374 17.1961 3.51399 17.6203L1.21372 19.6653C1.16671 19.707 1.12942 19.7566 1.10397 19.8111C1.07853 19.8657 1.06543 19.9242 1.06543 19.9833C1.06543 20.0424 1.07853 20.1009 1.10397 20.1554C1.12942 20.21 1.16671 20.2596 1.21372 20.3013L5.78882 24.3683C5.83577 24.4101 5.89153 24.4432 5.95291 24.4658C6.01428 24.4885 6.08007 24.5001 6.14652 24.5001C6.21296 24.5001 6.27875 24.4885 6.34013 24.4658C6.4015 24.4432 6.45726 24.4101 6.50422 24.3683L11.4629 19.9593C11.6689 19.7746 11.8487 19.5681 11.9982 19.3445C12.1477 19.5681 12.3275 19.7746 12.5335 19.9593L17.4659 24.3449C17.5608 24.4291 17.6895 24.4764 17.8236 24.4764C17.9577 24.4764 18.0863 24.4291 18.1813 24.3449L22.7564 20.2772C22.8512 20.1928 22.9044 20.0784 22.9044 19.9591C22.9044 19.8399 22.8512 19.7255 22.7564 19.6411L20.4824 17.6193ZM11.9982 3.6365L13.0304 9.02953C12.627 9.13454 12.2678 9.34366 11.9982 9.63038C11.7286 9.34366 11.3694 9.13454 10.966 9.02953L11.9982 3.6365ZM10.7475 19.3235L6.14637 23.4143L2.2861 19.9826L4.22881 18.2554C4.80269 17.7479 5.25767 17.1443 5.56742 16.4795C5.87717 15.8147 6.03553 15.1018 6.03335 14.3822V9.93621L9.67539 1.86169C9.74461 1.70615 9.87245 1.57682 10.0371 1.49582C10.2017 1.41481 10.3928 1.38717 10.5778 1.4176C10.7947 1.46275 10.9834 1.5809 11.1042 1.74722C11.2251 1.91354 11.2687 2.11506 11.2259 2.30938L9.94594 8.99663C9.46893 9.08593 9.04089 9.31821 8.73349 9.65458C8.42609 9.99096 8.25798 10.411 8.25731 10.8444V15.3575C8.25731 15.4768 8.3106 15.5912 8.40547 15.6755C8.50033 15.7599 8.62899 15.8073 8.76315 15.8073C8.8973 15.8073 9.02597 15.7599 9.12083 15.6755C9.21569 15.5912 9.26898 15.4768 9.26898 15.3575V10.8444C9.26898 10.5823 9.38611 10.3309 9.59459 10.1455C9.80307 9.96016 10.0858 9.85602 10.3807 9.85602C10.6755 9.85602 10.9583 9.96016 11.1668 10.1455C11.3752 10.3309 11.4924 10.5823 11.4924 10.8444V17.7247C11.4933 18.0217 11.4279 18.316 11.3 18.5904C11.1722 18.8648 10.9844 19.114 10.7475 19.3235ZM17.8234 23.3917L13.2489 19.3235C13.012 19.114 12.8242 18.8648 12.6964 18.5904C12.5685 18.316 12.5031 18.0217 12.504 17.7247V10.8444C12.5043 10.5822 12.6217 10.3308 12.8304 10.1455C13.0391 9.96013 13.3219 9.85602 13.6169 9.85602C13.9116 9.8563 14.1942 9.96052 14.4026 10.1458C14.611 10.3311 14.7283 10.5824 14.7286 10.8444V15.3575C14.7286 15.4768 14.7819 15.5912 14.8767 15.6755C14.9716 15.7599 15.1003 15.8073 15.2344 15.8073C15.3686 15.8073 15.4972 15.7599 15.5921 15.6755C15.687 15.5912 15.7402 15.4768 15.7402 15.3575V10.8444C15.7396 10.411 15.5715 9.99096 15.2641 9.65458C14.9567 9.31821 14.5286 9.08593 14.0516 8.99663L12.7703 2.30886C12.7274 2.1145 12.771 1.91292 12.8919 1.74658C13.0128 1.58024 13.2017 1.46212 13.4186 1.41709C13.4669 1.40954 13.5158 1.40575 13.5649 1.40578C13.7278 1.40524 13.8871 1.44841 14.0219 1.52966C14.1568 1.61091 14.2609 1.72645 14.3207 1.86118L17.9628 9.93569V14.3817C17.9606 15.1013 18.1189 15.8142 18.4287 16.479C18.7384 17.1438 19.1934 17.7474 19.7673 18.2549L21.6834 19.9585L17.8234 23.3917Z" fill="#215329"/>
<path d="M20.8184 5.56713C20.838 5.67208 20.8989 5.76744 20.9901 5.83628C21.0813 5.90512 21.1971 5.94297 21.3167 5.94311C21.3447 5.94308 21.3727 5.94102 21.4003 5.93694L23.5708 5.61519C23.6371 5.60632 23.7008 5.5858 23.7582 5.55482C23.8155 5.52385 23.8654 5.48304 23.9048 5.43477C23.9442 5.38651 23.9725 5.33174 23.9879 5.27368C24.0033 5.21561 24.0055 5.1554 23.9945 5.09655C23.9835 5.0377 23.9594 4.98139 23.9237 4.9309C23.8879 4.8804 23.8412 4.83674 23.7863 4.80244C23.7314 4.76815 23.6694 4.74391 23.6038 4.73113C23.5383 4.71836 23.4706 4.71731 23.4045 4.72804L21.2341 5.0498C21.1686 5.05949 21.1059 5.08056 21.0495 5.11181C20.9932 5.14306 20.9443 5.18387 20.9057 5.23191C20.8671 5.27995 20.8395 5.33428 20.8246 5.3918C20.8096 5.44932 20.8075 5.50889 20.8184 5.56713Z" fill="#215329"/>
<path d="M23.5518 9.30071L21.4155 8.83195C21.3509 8.8178 21.2839 8.81508 21.2182 8.82395C21.1525 8.83283 21.0894 8.85312 21.0325 8.88368C20.9756 8.91424 20.926 8.95446 20.8866 9.00205C20.8472 9.04964 20.8188 9.10366 20.8028 9.16103C20.7869 9.21841 20.7838 9.27801 20.7938 9.33643C20.8038 9.39486 20.8266 9.45096 20.861 9.50154C20.8954 9.55212 20.9406 9.59619 20.9941 9.63122C21.0477 9.66626 21.1084 9.69158 21.173 9.70573L23.3093 10.1745C23.4397 10.2031 23.5774 10.1845 23.6923 10.1228C23.8072 10.061 23.8898 9.96128 23.922 9.84541C23.9541 9.72954 23.9332 9.60706 23.8638 9.50491C23.7944 9.40276 23.6822 9.3293 23.5518 9.30071Z" fill="#215329"/>
<path d="M19.9074 2.43203C20.0016 2.43211 20.094 2.4086 20.1739 2.36418L22.0429 1.33183C22.0993 1.30065 22.1483 1.25989 22.187 1.21188C22.2257 1.16387 22.2534 1.10955 22.2685 1.05203C22.2836 0.994506 22.2858 0.934901 22.275 0.876618C22.2642 0.818335 22.2406 0.762516 22.2055 0.712348C22.1704 0.66218 22.1246 0.618646 22.0706 0.58423C22.0166 0.549815 21.9555 0.525192 21.8908 0.511769C21.8261 0.498345 21.7591 0.496383 21.6935 0.505995C21.628 0.515607 21.5652 0.536605 21.5088 0.567789L19.64 1.60039C19.5467 1.65202 19.4748 1.72929 19.4352 1.82051C19.3957 1.91172 19.3906 2.0119 19.4208 2.10589C19.4511 2.19988 19.5149 2.28256 19.6027 2.34141C19.6905 2.40026 19.7975 2.43207 19.9074 2.43203Z" fill="#215329"/>
</svg>
