<svg width="24" height="25" viewBox="0 0 24 25" fill="none" xmlns="http://www.w3.org/2000/svg">
<path d="M23.87 21.5218L22.1054 19.7573C22.0893 19.742 22.0721 19.728 22.054 19.7151C22.041 19.6965 22.0265 19.6788 22.0109 19.6622L21.1377 18.7891C20.9232 18.5748 20.6631 18.4119 20.3767 18.3124C20.0903 18.213 19.7852 18.1796 19.4841 18.2148C19.4841 18.1917 19.4874 18.1689 19.4874 18.1457C19.488 17.9187 19.4436 17.6937 19.3567 17.4839C19.2697 17.2741 19.142 17.0837 18.981 16.9236L18.6561 16.599C18.635 16.5776 18.6119 16.5589 18.5898 16.5391C18.6366 16.5003 18.682 16.4595 18.7254 16.4161C19.0809 16.0605 19.2806 15.5783 19.2806 15.0755C19.2806 14.5727 19.0809 14.0905 18.7254 13.735C18.6998 13.7093 18.6741 13.6877 18.6484 13.6643C18.7125 13.6153 18.7735 13.5623 18.831 13.5056C19.0071 13.3296 19.1468 13.1206 19.2421 12.8905C19.3375 12.6605 19.3865 12.4139 19.3865 12.1649C19.3865 11.9159 19.3375 11.6693 19.2421 11.4393C19.1468 11.2093 19.0071 11.0003 18.831 10.8242C18.7779 10.7718 18.7218 10.7225 18.663 10.6766C18.7196 10.6273 18.7733 10.5749 18.8238 10.5194C19.0141 10.3087 19.1546 10.0578 19.2347 9.78537C19.3149 9.51296 19.3327 9.226 19.2868 8.94577C19.2409 8.66554 19.1325 8.39924 18.9697 8.16661C18.8068 7.93399 18.5937 7.741 18.3461 7.60198C18.5524 7.34393 18.6876 7.03636 18.7381 6.70987C18.7885 6.38338 18.7527 6.04935 18.634 5.74104C18.5153 5.43272 18.3179 5.16087 18.0615 4.95254C17.8051 4.74421 17.4986 4.60666 17.1725 4.55359C17.2822 4.22295 17.2988 3.86846 17.2203 3.52904C17.1418 3.18961 16.9713 2.87837 16.7276 2.62948C16.4838 2.38059 16.1762 2.20367 15.8385 2.11815C15.5007 2.03262 15.146 2.0418 14.8131 2.14467C14.7668 1.79426 14.6234 1.46381 14.3989 1.19076C14.1745 0.917706 13.878 0.712968 13.5432 0.599737C13.2084 0.486506 12.8485 0.469307 12.5044 0.550089C12.1603 0.630871 11.8457 0.806405 11.5963 1.05681C11.5357 1.11822 11.4795 1.18378 11.4281 1.25301C11.4039 1.22733 11.3808 1.19831 11.3549 1.17237C11.1158 0.933202 10.817 0.762387 10.4896 0.677659C10.1623 0.592932 9.81816 0.597381 9.49307 0.690544C9.16798 0.783707 8.87375 0.962189 8.64093 1.20746C8.40811 1.45273 8.24519 1.75585 8.16907 2.08535C7.88084 1.96096 7.56621 1.91014 7.25347 1.93747C6.94073 1.96481 6.63968 2.06942 6.37739 2.24192C6.1151 2.41442 5.89979 2.6494 5.75081 2.92573C5.60183 3.20206 5.52385 3.51108 5.52388 3.82501V3.82937C5.22378 3.77499 4.91497 3.79411 4.62387 3.88509C4.33276 3.97607 4.06803 4.13621 3.8523 4.35181C3.63658 4.56741 3.47629 4.83205 3.38513 5.1231C3.29398 5.41415 3.27468 5.72295 3.32889 6.02308C3.01471 6.02245 2.70531 6.10002 2.42859 6.24881C2.15187 6.39759 1.91654 6.61292 1.74381 6.87536C1.57108 7.1378 1.46639 7.4391 1.43918 7.75211C1.41197 8.06511 1.46309 8.37996 1.58794 8.66827C1.25843 8.74413 0.955247 8.90683 0.709884 9.13949C0.464522 9.37214 0.285934 9.66625 0.192677 9.99126C0.099419 10.3163 0.0948935 10.6603 0.17957 10.9877C0.264247 11.315 0.435036 11.6137 0.674194 11.8528C0.699876 11.8785 0.727869 11.9016 0.755091 11.926C0.454652 12.1517 0.228286 12.4619 0.104877 12.8168C-0.0185317 13.1718 -0.033387 13.5555 0.0622071 13.9189C0.157801 14.2824 0.35951 14.6091 0.641594 14.8574C0.923678 15.1057 1.27335 15.2644 1.64598 15.3131C1.54226 15.6458 1.53241 16.0006 1.61754 16.3385C1.70267 16.6765 1.87946 16.9843 2.12842 17.2281C2.37738 17.472 2.68884 17.6423 3.02846 17.7204C3.36807 17.7985 3.72265 17.7813 4.05311 17.6706C4.10651 17.9965 4.24419 18.3027 4.45249 18.5589C4.66079 18.8152 4.93246 19.0125 5.24055 19.1313C5.54864 19.2501 5.88245 19.2863 6.20884 19.2362C6.53523 19.1862 6.84288 19.0517 7.10124 18.8461C7.16904 18.9662 7.24963 19.0787 7.34162 19.1815C7.67812 19.555 8.14906 19.7796 8.65107 19.8062C9.15307 19.8328 9.64511 19.6591 10.0192 19.3232C10.0745 19.2728 10.1269 19.2192 10.1761 19.1627C10.3532 19.3907 10.5804 19.575 10.84 19.7013C11.0997 19.8276 11.3849 19.8925 11.6736 19.891C11.9624 19.8896 12.2469 19.8218 12.5053 19.693C12.7637 19.5641 12.989 19.3776 13.1639 19.1478C13.1872 19.1735 13.2093 19.201 13.2345 19.2249C13.5901 19.5804 14.0723 19.7801 14.5751 19.7801C15.0779 19.7801 15.5601 19.5804 15.9156 19.2249C15.9593 19.1812 15.9999 19.1358 16.0384 19.089C16.0584 19.1114 16.0772 19.1342 16.0985 19.1558L16.4231 19.4802C16.5836 19.6409 16.7742 19.7682 16.9841 19.855C17.194 19.9418 17.4189 19.9863 17.646 19.9858C17.6689 19.9858 17.692 19.9835 17.7149 19.9825C17.6798 20.2835 17.7132 20.5886 17.8127 20.8749C17.9122 21.1612 18.0751 21.4212 18.2894 21.6356L19.1625 22.5088L21.0219 24.3684C21.0636 24.4101 21.1132 24.4432 21.1677 24.4658C21.2222 24.4884 21.2807 24.5 21.3397 24.5C21.3987 24.5 21.4572 24.4884 21.5117 24.4658C21.5662 24.4432 21.6158 24.4101 21.6575 24.3684C21.6992 24.3266 21.7323 24.2771 21.7549 24.2225C21.7775 24.168 21.7891 24.1096 21.7891 24.0506C21.7891 23.9915 21.7775 23.9331 21.7549 23.8786C21.7323 23.824 21.6992 23.7745 21.6575 23.7327L20.1166 22.1919L20.5868 21.7216L22.0807 23.2158C22.1222 23.2587 22.1718 23.293 22.2266 23.3165C22.2814 23.3401 22.3404 23.3525 22.4001 23.353C22.4597 23.3536 22.5189 23.3422 22.5742 23.3196C22.6294 23.297 22.6796 23.2637 22.7218 23.2215C22.764 23.1793 22.7974 23.1291 22.82 23.0739C22.8426 23.0187 22.854 22.9595 22.8535 22.8998C22.853 22.8401 22.8406 22.7812 22.817 22.7263C22.7935 22.6715 22.7593 22.6219 22.7163 22.5804L21.2222 21.086L21.6922 20.616L23.2331 22.1569C23.2748 22.1986 23.3243 22.2317 23.3788 22.2543C23.4333 22.2769 23.4917 22.2885 23.5507 22.2885C23.6097 22.2885 23.6681 22.2769 23.7227 22.2543C23.7772 22.2317 23.8267 22.1986 23.8684 22.1569C23.9101 22.1152 23.9432 22.0657 23.9658 22.0112C23.9884 21.9567 24 21.8983 24 21.8393C24 21.7803 23.9884 21.7218 23.9658 21.6673C23.9432 21.6128 23.9101 21.5633 23.8684 21.5216L23.87 21.5218ZM16.0995 16.7109C16.0923 16.7181 16.0864 16.7261 16.0795 16.7333C15.9166 16.5174 15.7092 16.3391 15.4712 16.2105C15.2333 16.082 14.9705 16.0062 14.7006 15.9883C14.4308 15.9704 14.1603 16.0109 13.9074 16.1069C13.6546 16.2029 13.4255 16.3523 13.2355 16.5448C13.1788 16.6023 13.1258 16.6634 13.0768 16.7276C13.0534 16.7019 13.0311 16.6745 13.0062 16.6506C12.6503 16.2955 12.1682 16.0961 11.6655 16.0961C11.1628 16.0961 10.6806 16.2955 10.3248 16.6506C10.2947 16.6806 10.268 16.7125 10.2405 16.7441C10.2149 16.7112 10.1892 16.6783 10.162 16.647C9.83846 16.2886 9.39046 16.067 8.90928 16.0274C8.42809 15.9879 7.94992 16.1333 7.57224 16.4341C7.48867 16.2837 7.38499 16.1455 7.26406 16.0232C7.01508 15.775 6.702 15.6008 6.35979 15.5203C6.01759 15.4397 5.65971 15.4558 5.32613 15.5668C5.26338 15.1756 5.07889 14.8142 4.79889 14.5339C4.50509 14.2395 4.12198 14.0507 3.70949 13.9972C3.81105 13.6675 3.82085 13.3163 3.73781 12.9815C3.65478 12.6467 3.48207 12.3408 3.23823 12.0967C3.21255 12.0711 3.18456 12.0479 3.15759 12.0238C3.49587 11.7684 3.73857 11.4068 3.84675 10.997C3.95494 10.5872 3.92233 10.1529 3.75417 9.76384C4.17141 9.66752 4.54366 9.43259 4.81014 9.0974C5.07662 8.76221 5.22158 8.34658 5.22135 7.91837C5.22083 7.80822 5.21077 7.69832 5.19131 7.58991H5.19336C5.44274 7.59021 5.68971 7.54122 5.92009 7.44575C6.15047 7.35029 6.35971 7.21022 6.53577 7.03361C6.71183 6.857 6.85124 6.64733 6.94599 6.41666C7.04075 6.18598 7.08897 5.93885 7.08788 5.68948C7.38815 5.74392 7.69714 5.72469 7.98834 5.63344C8.27954 5.54219 8.54425 5.38164 8.75975 5.16558C9.01052 4.91528 9.18554 4.59926 9.26464 4.25389C9.61317 4.40411 9.99877 4.44621 10.3715 4.37473C10.7442 4.30325 11.0869 4.12149 11.3551 3.853C11.4156 3.79153 11.4719 3.72607 11.5236 3.65705C11.5477 3.68273 11.5706 3.71175 11.5965 3.73769C11.7725 3.91375 11.9815 4.05333 12.2116 4.14844C12.4416 4.24354 12.6882 4.29229 12.9371 4.2919C13.1268 4.29156 13.3154 4.26299 13.4967 4.20715C13.5494 4.60981 13.7307 4.98472 14.0134 5.2762C14.2962 5.56767 14.6655 5.76016 15.0663 5.82508C14.926 6.24184 14.9359 6.69456 15.0942 7.10481C15.2526 7.51506 15.5494 7.85702 15.9334 8.07143C15.6313 8.44862 15.4851 8.92715 15.5248 9.40876C15.5645 9.89036 15.787 10.3385 16.1468 10.6611C16.1778 10.6891 16.2105 10.7146 16.2428 10.74C16.2115 10.7675 16.1799 10.7944 16.1504 10.824C15.9742 11 15.8345 11.209 15.7392 11.439C15.6439 11.6691 15.5948 11.9157 15.5948 12.1647C15.5948 12.4137 15.6439 12.6602 15.7392 12.8903C15.8345 13.1203 15.9742 13.3293 16.1504 13.5054C16.176 13.5311 16.2017 13.5526 16.2274 13.576C16.1631 13.625 16.1021 13.678 16.0446 13.7347C15.8522 13.9247 15.7029 14.1539 15.607 14.4068C15.511 14.6596 15.4706 14.9301 15.4885 15.1999C15.5064 15.4697 15.5821 15.7325 15.7106 15.9705C15.8391 16.2084 16.0173 16.416 16.2331 16.5789C16.2256 16.5859 16.2176 16.592 16.2105 16.5992L16.0995 16.7109ZM16.4937 12.1653C16.4937 11.9346 16.5737 11.711 16.72 11.5326C16.8664 11.3543 17.0701 11.2322 17.2963 11.1872C17.5226 11.1421 17.7575 11.177 17.961 11.2857C18.1645 11.3945 18.3239 11.5704 18.4122 11.7836C18.5005 11.9968 18.5122 12.2339 18.4452 12.4547C18.3782 12.6755 18.2367 12.8662 18.0449 12.9944C17.8531 13.1226 17.6227 13.1802 17.3931 13.1576C17.1635 13.135 16.9488 13.0334 16.7857 12.8703C16.6929 12.7779 16.6192 12.6679 16.5691 12.5469C16.519 12.4259 16.4934 12.2963 16.4937 12.1653ZM16.6807 15.7807C16.5412 15.6413 16.4462 15.4636 16.4077 15.2702C16.3692 15.0767 16.389 14.8762 16.4645 14.694C16.5399 14.5118 16.6677 14.356 16.8317 14.2464C16.9957 14.1368 17.1885 14.0784 17.3858 14.0784C17.583 14.0784 17.7758 14.1368 17.9398 14.2464C18.1038 14.356 18.2316 14.5118 18.3071 14.694C18.3826 14.8762 18.4023 15.0767 18.3638 15.2702C18.3253 15.4636 18.2303 15.6413 18.0909 15.7807C17.9009 15.9621 17.6483 16.0632 17.3857 16.0631C17.1231 16.0631 16.8706 15.9621 16.6807 15.7807ZM18.1556 9.9187C18.0683 10.0164 17.9626 10.0957 17.8444 10.1522C17.7263 10.2087 17.5981 10.2411 17.4673 10.2477C17.2035 10.2609 16.9451 10.1696 16.7482 9.99343C16.6153 9.87444 16.5169 9.72189 16.4632 9.55178C16.4095 9.38166 16.4025 9.20024 16.4431 9.02651C16.4836 8.85279 16.5701 8.69316 16.6935 8.56434C16.8169 8.43553 16.9727 8.34227 17.1445 8.29435C17.192 8.28716 17.2393 8.27868 17.286 8.26867C17.3117 8.26533 17.3374 8.25865 17.363 8.25711C17.3813 8.25711 17.3993 8.25711 17.417 8.25711C17.6096 8.25721 17.7981 8.31314 17.9596 8.41813C18.1211 8.52311 18.2488 8.67266 18.3271 8.84867C18.4054 9.02468 18.431 9.21961 18.4008 9.40988C18.3707 9.60015 18.286 9.7776 18.1571 9.92075L18.1556 9.9187ZM17.5685 7.12687C17.4474 7.24634 17.2974 7.33243 17.1332 7.37675C17.0818 7.38445 17.0305 7.3955 16.9791 7.40731C16.7736 7.43257 16.5652 7.39293 16.3833 7.29392C16.2014 7.19491 16.0551 7.0415 15.9647 6.85517C15.8743 6.66883 15.8445 6.4589 15.8793 6.25476C15.9142 6.05062 16.012 5.86249 16.1591 5.7167C16.1914 5.6863 16.2257 5.65816 16.2618 5.63247C16.3242 5.59892 16.3848 5.56197 16.4431 5.52178C16.6552 5.42205 16.8956 5.40038 17.1221 5.46058C17.3486 5.52078 17.5465 5.65899 17.6811 5.85085C17.8156 6.04271 17.8782 6.27591 17.8576 6.50935C17.837 6.74278 17.7345 6.96147 17.5685 7.12687ZM16.079 3.25128C16.2657 3.43838 16.3705 3.69191 16.3705 3.95624C16.3705 4.22057 16.2657 4.4741 16.079 4.66119C16.0438 4.69471 16.0059 4.72529 15.9657 4.75262C15.9159 4.7783 15.8666 4.80784 15.8188 4.83942C15.6317 4.93022 15.4214 4.9618 15.216 4.92996C15.0105 4.89811 14.8196 4.80435 14.6688 4.66119C14.5762 4.5686 14.5028 4.45868 14.4527 4.33771C14.4026 4.21674 14.3768 4.08708 14.3768 3.95615C14.3768 3.82521 14.4026 3.69556 14.4528 3.5746C14.5029 3.45364 14.5763 3.34373 14.6689 3.25116C14.7615 3.15858 14.8714 3.08515 14.9924 3.03505C15.1134 2.98496 15.243 2.95918 15.374 2.95919C15.5049 2.9592 15.6346 2.985 15.7555 3.03512C15.8765 3.08524 15.9864 3.15869 16.079 3.25128ZM12.2319 1.69242C12.3713 1.55294 12.549 1.45795 12.7425 1.41947C12.9359 1.38098 13.1364 1.40072 13.3187 1.47619C13.5009 1.55166 13.6566 1.67948 13.7662 1.84347C13.8758 2.00746 13.9343 2.20027 13.9343 2.3975C13.9343 2.59474 13.8758 2.78755 13.7662 2.95154C13.6566 3.11553 13.5009 3.24335 13.3187 3.31882C13.1364 3.39429 12.9359 3.41403 12.7425 3.37554C12.549 3.33705 12.3713 3.24206 12.2319 3.10259C12.0452 2.91541 11.9404 2.66182 11.9404 2.39745C11.9405 2.13308 12.0451 1.87953 12.2319 1.69242ZM9.30933 1.80799C9.40191 1.71541 9.51181 1.64198 9.63277 1.59187C9.75372 1.54177 9.88336 1.51598 10.0143 1.51598C10.1452 1.51598 10.2748 1.54177 10.3958 1.59187C10.5168 1.64198 10.6267 1.71541 10.7192 1.80799C10.8118 1.90056 10.8853 2.01047 10.9354 2.13142C10.9855 2.25238 11.0112 2.38202 11.0112 2.51294C11.0112 2.64387 10.9855 2.7735 10.9354 2.89446C10.8853 3.01542 10.8118 3.12532 10.7192 3.2179C10.5294 3.39928 10.2769 3.50049 10.0143 3.50049C9.7517 3.50049 9.49921 3.39928 9.30933 3.2179C9.21672 3.12534 9.14326 3.01544 9.09314 2.89448C9.04302 2.77352 9.01722 2.64387 9.01722 2.51294C9.01722 2.38201 9.04302 2.25236 9.09314 2.1314C9.14326 2.01044 9.21672 1.90055 9.30933 1.80799ZM6.71345 3.11979C6.87656 2.95684 7.09112 2.85547 7.32059 2.83296C7.55005 2.81045 7.78022 2.86819 7.97189 2.99635C8.16356 3.12451 8.30487 3.31515 8.37174 3.53581C8.43862 3.75646 8.42692 3.99348 8.33865 4.20648C8.25038 4.41948 8.09099 4.59529 7.88764 4.70395C7.68429 4.81262 7.44955 4.84742 7.22341 4.80243C6.99728 4.75745 6.79374 4.63545 6.64746 4.45722C6.50118 4.279 6.42122 4.05557 6.42119 3.82501C6.42105 3.694 6.4468 3.56426 6.49695 3.44324C6.54711 3.32222 6.62068 3.2123 6.71345 3.11979ZM4.48866 4.98966C4.65178 4.82669 4.86636 4.72532 5.09583 4.70282C5.32531 4.68032 5.55549 4.73808 5.74716 4.86625C5.93883 4.99443 6.08013 5.18509 6.14699 5.40576C6.21384 5.62644 6.20212 5.86346 6.11382 6.07646C6.02551 6.28946 5.86609 6.46525 5.66271 6.57389C5.45933 6.68253 5.22458 6.7173 4.99844 6.67226C4.7723 6.62723 4.56877 6.50518 4.42253 6.32692C4.27629 6.14865 4.19637 5.92519 4.19641 5.69462C4.19622 5.56364 4.22194 5.43393 4.2721 5.31294C4.32226 5.19195 4.39586 5.08208 4.48866 4.98966ZM2.62188 7.2129C2.71445 7.12033 2.82436 7.04689 2.94531 6.99679C3.06627 6.94669 3.19591 6.9209 3.32683 6.9209C3.45776 6.9209 3.5874 6.94669 3.70835 6.99679C3.82931 7.04689 3.93921 7.12033 4.03179 7.2129C4.12437 7.30548 4.1978 7.41538 4.2479 7.53634C4.298 7.6573 4.32379 7.78694 4.32379 7.91786C4.32379 8.04878 4.298 8.17842 4.2479 8.29938C4.1978 8.42033 4.12437 8.53024 4.03179 8.62281C3.84194 8.80425 3.58944 8.90551 3.32683 8.90551C3.06422 8.90551 2.81173 8.80425 2.62188 8.62281C2.43516 8.43572 2.3303 8.18218 2.3303 7.91786C2.3303 7.65353 2.43516 7.4 2.62188 7.2129ZM1.30853 9.80878C1.47165 9.64582 1.68622 9.54445 1.9157 9.52194C2.14518 9.49944 2.37536 9.5572 2.56702 9.68537C2.75869 9.81355 2.89999 10.0042 2.96685 10.2249C3.03371 10.4456 3.02198 10.6826 2.93368 10.8956C2.84538 11.1086 2.68596 11.2844 2.48258 11.393C2.2792 11.5017 2.04444 11.5364 1.8183 11.4914C1.59217 11.4464 1.38864 11.3243 1.24239 11.146C1.09615 10.9678 1.01624 10.7443 1.01627 10.5137C1.01612 10.3828 1.04187 10.2531 1.09202 10.1321C1.14218 10.0111 1.21576 9.90123 1.30853 9.80878ZM0.901218 13.4365C0.901254 13.2058 0.981284 12.9823 1.12767 12.804C1.27406 12.6256 1.47774 12.5036 1.70403 12.4586C1.93031 12.4136 2.16518 12.4485 2.36863 12.5573C2.57209 12.6661 2.73152 12.842 2.81978 13.0552C2.90804 13.2684 2.91966 13.5055 2.85266 13.7263C2.78567 13.9471 2.64419 14.1378 2.45235 14.2659C2.26051 14.3941 2.03016 14.4517 1.80057 14.4291C1.57098 14.4065 1.35633 14.3049 1.19322 14.1418C1.10032 14.0494 1.02669 13.9395 0.976563 13.8184C0.926441 13.6974 0.900832 13.5676 0.901218 13.4365ZM2.75208 16.5789C2.62212 16.4501 2.53009 16.2881 2.48606 16.1105C2.44204 15.9329 2.44773 15.7466 2.5025 15.5721C2.55727 15.3975 2.65901 15.2413 2.79659 15.1207C2.93416 15.0001 3.10227 14.9197 3.28251 14.8882C3.46275 14.8568 3.64817 14.8755 3.81848 14.9424C3.98878 15.0092 4.1374 15.1217 4.24807 15.2674C4.35875 15.4131 4.4272 15.5864 4.44595 15.7684C4.46469 15.9504 4.433 16.1341 4.35435 16.2993C4.31655 16.3545 4.28175 16.4118 4.25008 16.4708C4.16765 16.5887 4.05995 16.6868 3.93483 16.7578C3.80971 16.8289 3.67033 16.8711 3.52682 16.8815C3.38331 16.8918 3.2393 16.87 3.10528 16.8177C2.97126 16.7654 2.85059 16.6838 2.75208 16.5789ZM5.2175 18.0684C5.07298 17.9228 4.97695 17.7361 4.94252 17.5339C4.9081 17.3316 4.93695 17.1237 5.02515 16.9385C5.06294 16.8833 5.09775 16.8261 5.12942 16.7672C5.15615 16.7291 5.18558 16.6929 5.2175 16.659C5.36349 16.5118 5.55193 16.4139 5.75637 16.3792C5.9608 16.3445 6.17098 16.3747 6.35739 16.4655C6.54381 16.5563 6.69711 16.7032 6.79579 16.8856C6.89447 17.068 6.93357 17.2767 6.9076 17.4824C6.89604 17.5317 6.88551 17.5815 6.87781 17.6321C6.83366 17.7969 6.74746 17.9473 6.62767 18.0687C6.44045 18.2554 6.18678 18.3603 5.92235 18.3602C5.65792 18.3601 5.40433 18.2551 5.21725 18.0682L5.2175 18.0684ZM9.41925 18.6555C9.27264 18.7874 9.09021 18.8729 8.89502 18.9011C8.69984 18.9293 8.50067 18.899 8.32272 18.814C8.14477 18.729 7.99602 18.5931 7.8953 18.4236C7.79458 18.254 7.74641 18.0584 7.75689 17.8615C7.75843 17.8358 7.76536 17.8101 7.7687 17.7831C7.77923 17.7372 7.78745 17.6909 7.79438 17.6442C7.83625 17.4954 7.91216 17.3584 8.01611 17.2439C8.12007 17.1295 8.24922 17.0409 8.39334 16.985C8.53747 16.9291 8.69262 16.9075 8.84653 16.922C9.00044 16.9364 9.14888 16.9864 9.28012 17.0681C9.41136 17.1498 9.52179 17.2609 9.60269 17.3926C9.68358 17.5243 9.73272 17.6731 9.74622 17.8271C9.75972 17.981 9.7372 18.1361 9.68045 18.2799C9.6237 18.4236 9.53428 18.5523 9.41925 18.6555ZM12.3708 18.6956C12.2077 18.8585 11.9931 18.9598 11.7636 18.9822C11.5341 19.0046 11.304 18.9468 11.1123 18.8186C10.9207 18.6904 10.7795 18.4997 10.7127 18.279C10.6459 18.0583 10.6577 17.8213 10.746 17.6084C10.8343 17.3954 10.9938 17.2196 11.1971 17.111C11.4005 17.0024 11.6353 16.9677 11.8614 17.0127C12.0875 17.0578 12.291 17.1798 12.4372 17.3581C12.5835 17.5364 12.6634 17.7598 12.6633 17.9904C12.6629 18.2549 12.5576 18.5084 12.3706 18.6953L12.3708 18.6956ZM15.2813 18.5905C15.1419 18.7299 14.9642 18.8249 14.7708 18.8633C14.5775 18.9017 14.377 18.882 14.1949 18.8065C14.0127 18.731 13.857 18.6032 13.7475 18.4393C13.638 18.2754 13.5795 18.0826 13.5795 17.8855C13.5795 17.6883 13.638 17.4956 13.7475 17.3316C13.857 17.1677 14.0127 17.0399 14.1949 16.9644C14.377 16.889 14.5775 16.8692 14.7708 16.9076C14.9642 16.9461 15.1419 17.041 15.2813 17.1804C15.468 17.3675 15.5728 17.6211 15.5728 17.8854C15.5727 18.1497 15.4678 18.4032 15.281 18.5903L15.2813 18.5905ZM18.2347 18.8474C18.0787 19.0027 17.8676 19.0899 17.6475 19.0899C17.4273 19.0899 17.2162 19.0027 17.0603 18.8474L16.7356 18.5228C16.58 18.3669 16.4925 18.1556 16.4925 17.9353C16.4925 17.715 16.58 17.5037 16.7356 17.3478L16.8471 17.2359C17.003 17.0805 17.2142 16.9932 17.4343 16.9932C17.6544 16.9932 17.8656 17.0805 18.0215 17.2359L18.3461 17.5607C18.5011 17.7169 18.588 17.9279 18.588 18.1479C18.588 18.3679 18.5011 18.579 18.3461 18.7351L18.2347 18.8474ZM18.9263 19.4265C19.1355 19.218 19.4188 19.1009 19.7142 19.1009C20.0096 19.1009 20.2929 19.218 20.5021 19.4265L21.0573 19.9809L19.4815 21.5568L18.9258 21.001C18.7172 20.7918 18.6 20.5084 18.6 20.213C18.6 19.9175 18.7172 19.6342 18.9258 19.4249L18.9263 19.4265Z" fill="#215329"/>
</svg>
